<svg width="283" height="34" viewBox="0 0 283 34" fill="none" xmlns="http://www.w3.org/2000/svg">
<path d="M10.86 32.26L11.22 26.32C13.548 26.56 15.168 26.68 16.08 26.68C16.656 26.68 17.004 26.62 17.124 26.5C17.268 26.38 17.34 26.02 17.34 25.42V18.976C12.516 23.032 7.776 26.38 3.12 29.02L0.06 23.62C5.028 20.884 10.032 17.344 15.072 13H0.24V7.06H17.34V2.02H24V7.06H30.48V13H24V25.42C24 26.644 23.976 27.604 23.928 28.3C23.904 28.996 23.784 29.644 23.568 30.244C23.376 30.844 23.148 31.276 22.884 31.54C22.644 31.804 22.212 32.032 21.588 32.224C20.964 32.416 20.316 32.524 19.644 32.548C18.972 32.596 18.024 32.62 16.8 32.62C15.48 32.62 13.5 32.5 10.86 32.26ZM57.912 11.2H36.96V4.72H65.4V5.8C65.4 14.536 63.408 21.052 59.424 25.348C55.464 29.644 49.296 32.128 40.92 32.8L39.66 26.5C45.564 26.02 49.92 24.628 52.728 22.324C55.56 19.996 57.288 16.288 57.912 11.2ZM96.216 9.256L99.528 13.504C97.296 15.544 94.668 17.392 91.644 19.048V32.872H85.38V21.928C82.14 23.152 78.888 23.992 75.624 24.448L74.76 19.048C78.768 18.496 82.656 17.356 86.424 15.628C90.216 13.9 93.48 11.776 96.216 9.256ZM111.12 10.3V4H134.88V10.3C133.32 13.54 131.268 16.648 128.724 19.624C131.916 22.408 135.048 25.24 138.12 28.12L133.44 32.8C130.488 29.944 127.404 27.112 124.188 24.304C120.204 27.904 115.788 30.736 110.94 32.8L107.88 27.22C116.4 23.188 122.82 17.548 127.14 10.3H111.12ZM149.424 27.4C152.04 27.16 154.128 26.836 155.688 26.428C157.272 25.996 158.556 25.36 159.54 24.52C160.524 23.656 161.184 22.612 161.52 21.388C161.88 20.164 162.06 18.568 162.06 16.6V15.16H154.86V21.28H148.2V15.16H142.8V9.04H148.2V2.92H154.86V9.04H162.06V2.92H165.3L168.54 1.3C169.524 3.148 170.436 4.912 171.276 6.592L169.08 7.636V9.04H174.48V15.16H169.08V16.6C169.08 22.144 167.664 26.224 164.832 28.84C162.024 31.432 157.32 32.992 150.72 33.52L149.424 27.4ZM176.64 5.8L173.184 7.456C171.888 4.96 170.952 3.184 170.376 2.128L173.832 0.399999C174.936 2.416 175.872 4.216 176.64 5.8ZM187.8 32.8L186.9 26.68C192.54 26.44 196.56 25.36 198.96 23.44C201.36 21.52 202.56 18.52 202.56 14.44V12.82H187.26V19.84H180.6V6.88H191.4V1.84H198.24V6.88H209.4V14.44C209.4 26.032 202.2 32.152 187.8 32.8ZM241.8 14.98L248.28 15.88C247.752 21.88 246.132 26.176 243.42 28.768C240.708 31.336 236.568 32.62 231 32.62H229.92V3.28H236.94V25.348C238.428 24.748 239.52 23.668 240.216 22.108C240.936 20.548 241.464 18.172 241.8 14.98ZM214.08 27.4C215.28 26.776 216.192 26.212 216.816 25.708C217.464 25.204 218.04 24.604 218.544 23.908C219.072 23.212 219.432 22.276 219.624 21.1C219.816 19.9 219.96 18.556 220.056 17.068C220.152 15.556 220.2 13.48 220.2 10.84V3.28H227.04V10.84C227.04 15.856 226.764 19.756 226.212 22.54C225.66 25.324 224.748 27.484 223.476 29.02C222.228 30.556 220.356 31.936 217.86 33.16L214.08 27.4ZM255.12 10.3V4H278.88V10.3C277.32 13.54 275.268 16.648 272.724 19.624C275.916 22.408 279.048 25.24 282.12 28.12L277.44 32.8C274.488 29.944 271.404 27.112 268.188 24.304C264.204 27.904 259.788 30.736 254.94 32.8L251.88 27.22C260.4 23.188 266.82 17.548 271.14 10.3H255.12Z" fill="#FBFBFB"/>
</svg>
