<svg width="184" height="57" viewBox="0 0 184 57" fill="none" xmlns="http://www.w3.org/2000/svg">
<path d="M28.59 0.00287352C28.5775 0.0242943 27.2535 4.57889 27.2535 4.60031C27.2535 4.60834 23.6314 4.61102 19.2049 4.60566L11.1562 4.59495L9.67487 9.73594C8.86052 12.5635 8.19354 14.885 8.19354 14.893C8.19354 14.9037 11.5434 14.9198 15.6402 14.9332L23.0868 14.9573L22.832 15.3053C21.2458 17.4956 18.9226 19.8653 16.3296 21.9431C12.9898 24.618 9.02539 27.1269 4.45899 29.4538C4.12925 29.6225 3.85196 29.767 3.84197 29.7751C3.82698 29.7885 0 43.2969 0 43.3344C0 43.3425 0.424665 43.1068 0.941758 42.8123C7.97871 38.8227 12.6575 35.5025 16.512 31.7619C17.5986 30.7069 19.1374 29.0682 20.1067 27.9302C20.4139 27.5687 20.6862 27.2501 20.7137 27.2207C20.7586 27.1671 20.7586 27.1698 20.7237 27.2876C20.6312 27.5821 16.1073 43.321 16.0948 43.3826L16.0823 43.4522L21.3132 43.4656C24.1884 43.4737 26.5441 43.4763 26.5491 43.4737C26.5541 43.4683 34.4553 16.0444 34.7001 15.1768L34.7526 14.9974H37.2831H39.8136L39.8411 14.9091C39.8536 14.8635 40.001 14.3361 40.1658 13.7389C40.3307 13.1418 40.5231 12.4858 40.593 12.2797C41.1401 10.7079 42.0044 9.06922 42.9761 7.77058C43.2584 7.39036 44.0353 6.54157 44.3051 6.31397C44.8671 5.84271 45.5466 5.44911 46.1861 5.22419C46.6257 5.06889 47.0579 4.97249 48.0621 4.81184L48.7741 4.69938L47.2503 4.68064C46.4134 4.66993 43.9778 4.66189 41.8395 4.66189C39.7012 4.66189 37.9451 4.65386 37.9376 4.64583C37.9101 4.6137 38.2673 3.98446 38.5771 3.51588C38.8594 3.09282 39.1142 2.77151 39.4589 2.41003C40.5281 1.29348 41.862 0.693694 44.4025 0.187628L45.1194 0.0430375L43.5382 0.0350047C38.8269 0.0135839 28.5975 -0.00783687 28.59 0.00287352Z" fill="white"/>
<path d="M53.5201 2.96424C53.0879 3.01244 52.6258 3.149 52.3036 3.32304C51.7215 3.639 51.2594 4.212 51.0521 4.87605C50.9671 5.14381 50.7598 6.18004 50.7423 6.41566C50.6998 6.97528 50.9471 7.47867 51.3743 7.70894C51.4542 7.75179 51.8639 7.89102 52.2836 8.01955C52.7033 8.14807 53.0904 8.27124 53.1454 8.29802C53.2878 8.36228 53.4002 8.48009 53.4751 8.63272C53.5701 8.83354 53.5726 8.98348 53.4851 9.42796C53.3627 10.0545 53.1954 10.3437 52.8406 10.5311C52.6958 10.6061 52.6458 10.6195 52.4285 10.6275C52.0338 10.6463 51.8364 10.5526 51.7165 10.2875C51.6216 10.084 51.6266 9.89654 51.7415 9.34228C51.7915 9.09594 51.8339 8.86834 51.8339 8.83889C51.8339 8.78534 51.8214 8.78534 51.0421 8.79069L50.2502 8.79873L50.1428 9.33425C49.9779 10.1429 49.9904 10.5365 50.1902 10.981C50.3051 11.238 50.5624 11.5031 50.8347 11.6423C51.4717 11.9717 52.4834 12.0065 53.2828 11.728C53.4776 11.6584 53.8449 11.4656 54.0047 11.3478C54.2021 11.2032 54.5068 10.8712 54.6442 10.6463C54.8915 10.25 54.969 10.0144 55.1463 9.14681C55.2363 8.69966 55.2587 8.53097 55.2612 8.33015C55.2612 7.78659 55.0339 7.36889 54.6142 7.14129C54.5418 7.10381 54.1196 6.96189 53.6775 6.82801C53.2328 6.69413 52.8232 6.5549 52.7657 6.52009C52.6533 6.45047 52.5359 6.28714 52.4884 6.13719C52.441 5.9926 52.4534 5.73823 52.5209 5.41424C52.6558 4.77965 52.8157 4.51189 53.1779 4.32178C53.3602 4.22539 53.7574 4.20129 53.9573 4.27359C54.2171 4.3673 54.347 4.5949 54.342 4.95637C54.3395 5.09561 54.2246 5.79446 54.1671 6.00599C54.1546 6.04883 54.2121 6.05419 54.954 6.05954C55.3961 6.0649 55.7558 6.0649 55.7558 6.0649C55.7558 6.06222 55.8033 5.83195 55.8608 5.55616C55.9507 5.11435 55.9632 5.00725 55.9632 4.71539C55.9657 4.19058 55.8433 3.82643 55.5685 3.53457C55.2088 3.15435 54.7391 2.98031 54.0072 2.96424C53.7949 2.95889 53.5751 2.95889 53.5201 2.96424Z" fill="white"/>
<path d="M96.8062 3.05528C95.7195 3.15167 94.8927 3.71129 94.458 4.64845C94.3481 4.88676 94.2906 5.09561 94.1607 5.71949C94.0333 6.34872 94.0034 6.66468 94.0483 6.91637C94.1158 7.28588 94.3406 7.6179 94.6429 7.78659C94.7278 7.83479 95.0875 7.96064 95.5122 8.08916C95.9119 8.20965 96.2866 8.32747 96.349 8.34889C96.5938 8.43725 96.7762 8.65681 96.8261 8.91922C96.8486 9.04774 96.8436 9.11468 96.7887 9.42261C96.7537 9.61807 96.7012 9.84567 96.6738 9.92599C96.5663 10.2553 96.389 10.4829 96.1342 10.6195C96.0018 10.6891 95.9568 10.6998 95.697 10.7079C95.4397 10.7186 95.3948 10.7132 95.2799 10.6597C95.1175 10.5847 95.0126 10.4588 94.9626 10.2794C94.9077 10.0786 94.9151 9.99829 95.0251 9.44403C95.08 9.17091 95.125 8.93528 95.125 8.91922C95.125 8.90315 94.8502 8.89244 94.3306 8.89244H93.5337L93.4238 9.43332C93.3289 9.91261 93.3164 10.0144 93.3164 10.2982C93.3189 10.5713 93.3289 10.6516 93.3839 10.8364C93.6312 11.6397 94.3781 12.0386 95.5621 11.9904C96.7562 11.9422 97.648 11.3906 98.0951 10.4294C98.2325 10.1322 98.2875 9.94741 98.4149 9.32086C98.5498 8.66217 98.5773 8.29801 98.5098 8.04632C98.4174 7.70359 98.2175 7.42244 97.9453 7.25107C97.8803 7.20823 97.5381 7.09042 97.1209 6.96457C96.0368 6.63255 96.0942 6.65397 95.9693 6.53615C95.737 6.31927 95.697 6.04615 95.8119 5.4785C95.9268 4.9055 96.1042 4.60829 96.4364 4.43156C96.5938 4.34856 96.6513 4.33249 96.8411 4.32178C97.1109 4.30304 97.3058 4.35659 97.4357 4.47976C97.668 4.69665 97.683 4.96173 97.5131 5.79446C97.4781 5.9685 97.4481 6.12381 97.4481 6.13719C97.4481 6.15058 97.7779 6.16129 98.2475 6.16129C98.6872 6.16129 99.0469 6.15326 99.0469 6.14255C99.0469 6.13452 99.0919 5.89621 99.1493 5.61506C99.2342 5.192 99.2517 5.05277 99.2517 4.80911C99.2517 4.31643 99.1368 3.94424 98.8945 3.66042C98.4898 3.18648 97.7554 2.97227 96.8062 3.05528Z" fill="white"/>
<path d="M139.315 3.17578C138.243 3.36589 137.494 4.00852 137.127 5.05278C137.052 5.26431 137.064 5.2054 136.565 7.7277C136.175 9.68235 136.135 9.89923 136.125 10.2045C136.11 10.6168 136.15 10.8525 136.292 11.1577C136.567 11.7575 137.222 12.0788 138.168 12.0788C138.965 12.0788 139.592 11.8887 140.102 11.487C140.252 11.3692 140.574 11.0131 140.684 10.8417C140.816 10.6329 140.981 10.258 141.061 9.97688C141.146 9.67699 141.943 5.70076 142.003 5.27234C142.045 4.96977 142.035 4.64846 141.975 4.39141C141.833 3.79431 141.438 3.40606 140.791 3.22398C140.582 3.16507 140.489 3.15436 140.039 3.14633C139.68 3.14098 139.465 3.14901 139.315 3.17578ZM139.967 4.66185C140.112 4.70469 140.264 4.83857 140.317 4.96977C140.427 5.23486 140.429 5.22147 139.977 7.48672C139.75 8.63541 139.55 9.62879 139.535 9.69573C139.455 10.0465 139.248 10.3303 138.97 10.4776C138.808 10.5633 138.793 10.566 138.491 10.566C138.218 10.566 138.166 10.5579 138.078 10.507C137.864 10.3839 137.756 10.1938 137.756 9.93672C137.756 9.67699 138.613 5.41426 138.703 5.22147C138.84 4.93229 139.143 4.69398 139.445 4.63775C139.592 4.6083 139.832 4.61901 139.967 4.66185Z" fill="white"/>
<path d="M57.9794 3.1865C57.9794 3.19721 57.7771 4.22005 57.5298 5.45442C56.5181 10.4883 56.2808 11.6825 56.2808 11.7066C56.2808 11.72 57.1326 11.7307 58.474 11.7307H60.6648L60.8097 10.9997C60.8871 10.6008 60.9521 10.2634 60.9521 10.25C60.9521 10.2393 60.3276 10.2313 59.5657 10.2313C58.8038 10.2313 58.1793 10.2232 58.1793 10.2098C58.1793 10.1991 58.2692 9.74394 58.3766 9.20038L58.5715 8.20967L59.6856 8.20164C60.3001 8.19896 60.8022 8.18557 60.8022 8.17486C60.8022 8.16415 60.8646 7.8482 60.9396 7.47333C61.0145 7.09847 61.077 6.76913 61.077 6.74235C61.077 6.69951 61.007 6.69683 59.9753 6.69683C58.9387 6.69683 58.8737 6.69415 58.8837 6.64863C58.8912 6.62453 58.9836 6.16667 59.091 5.63382L59.2884 4.66186L60.6873 4.6565L62.0837 4.64847L62.2286 3.92552C62.3085 3.52655 62.376 3.19453 62.376 3.18114C62.376 3.17043 61.3867 3.1624 60.1777 3.1624C58.9686 3.1624 57.9794 3.17311 57.9794 3.1865Z" fill="white"/>
<path d="M65.526 3.27488C65.501 3.33914 64.7017 5.26166 63.7524 7.551C62.8007 9.83767 62.0263 11.7147 62.0313 11.72C62.0363 11.7254 62.406 11.7307 62.8506 11.7307L63.6625 11.7334L63.9797 10.9087C64.1546 10.4562 64.3295 10.009 64.3644 9.91532L64.4294 9.74931L65.2712 9.75466L66.1106 9.7627L66.1181 10.7588L66.123 11.7575H66.9474H67.7717V11.6424C67.7717 11.5808 67.7443 9.78144 67.7093 7.6474C67.6743 5.51067 67.6468 3.62832 67.6468 3.46231V3.16242H66.6102H65.571L65.526 3.27488ZM66.1605 7.11723L66.143 8.27663H65.5835C65.2762 8.27663 65.0239 8.2686 65.0239 8.25521C65.0239 8.2445 65.2787 7.58313 65.591 6.78789L66.1605 5.33931L66.168 5.64991C66.173 5.82127 66.168 6.48264 66.1605 7.11723Z" fill="white"/>
<path d="M70.5344 3.90411C70.457 4.3004 70.3945 4.63778 70.3945 4.65384C70.3945 4.68062 70.5794 4.68865 71.2339 4.68865H72.0732L72.0607 4.74756C72.0532 4.78237 71.7909 6.08636 71.4812 7.6474C71.1689 9.20843 70.8567 10.7722 70.7842 11.1202L70.6518 11.7575H71.4562H72.2606L72.3105 11.4951C72.3405 11.3532 72.6577 9.76805 73.015 7.97406C73.3747 6.18275 73.667 4.71007 73.667 4.70204C73.667 4.69401 74.0442 4.68865 74.5038 4.68865H75.3406L75.3531 4.62707C75.3756 4.52532 75.6404 3.21062 75.6404 3.19991C75.6404 3.19455 74.5238 3.1892 73.1599 3.1892H70.6768L70.5344 3.90411Z" fill="white"/>
<path d="M81.8255 3.21325C81.8055 3.24538 80.1118 11.6878 80.1118 11.7468C80.1118 11.7789 80.2392 11.7842 80.8962 11.7842C81.3284 11.7842 81.6881 11.7762 81.6931 11.7628C81.7006 11.7521 81.8554 10.997 82.0378 10.0866L82.37 8.42921L82.6923 8.44528C82.9496 8.45599 83.032 8.47205 83.1244 8.51757C83.2468 8.58183 83.3393 8.69697 83.3817 8.83888C83.3967 8.88976 83.4942 9.54577 83.5966 10.2982C83.699 11.0479 83.7889 11.6905 83.7964 11.7227L83.8089 11.7842H84.6582C85.3027 11.7842 85.5076 11.7762 85.5076 11.7521C85.5076 11.7334 85.4176 11.08 85.3077 10.3009C85.0804 8.67823 85.0554 8.57916 84.8381 8.32478L84.7781 8.25517L84.9105 8.18019C85.3352 7.9526 85.6849 7.58845 85.9023 7.152C86.0446 6.86817 86.0646 6.78784 86.2595 5.80249C86.4518 4.8332 86.4718 4.6056 86.3944 4.28429C86.2695 3.77287 85.8998 3.38194 85.4201 3.25877C85.2278 3.2079 81.8529 3.16505 81.8255 3.21325ZM84.5508 4.7609C84.6882 4.83052 84.7656 4.98047 84.7631 5.16522C84.7607 5.34194 84.5059 6.62451 84.4459 6.75839C84.3785 6.91369 84.261 7.03954 84.1137 7.11719L83.9713 7.19216L83.2893 7.20019L82.6073 7.20823L82.6223 7.14664C82.6523 7.01276 83.1095 4.73948 83.1095 4.72877C83.1095 4.72074 83.4142 4.71538 83.7864 4.71538C84.366 4.71538 84.4759 4.72074 84.5508 4.7609Z" fill="white"/>
<path d="M88.6926 3.2481C88.6876 3.26684 88.3054 5.16794 87.8458 7.47335C87.3836 9.77876 87.0014 11.6879 86.9939 11.72L86.9814 11.7762L89.1597 11.7923C90.3588 11.803 91.348 11.8003 91.358 11.7896C91.368 11.7789 91.4429 11.4442 91.5229 11.0426L91.6678 10.317L90.2788 10.2955L88.8874 10.2714L89.0573 9.41461C89.1497 8.94335 89.2372 8.48816 89.2547 8.40248L89.2821 8.24985H90.3913C91.4254 8.24985 91.5004 8.24718 91.5129 8.20166C91.5329 8.12401 91.7802 6.87357 91.7852 6.81734C91.7902 6.76379 91.7702 6.76379 90.691 6.7504L89.5894 6.73701L89.7792 5.79985C89.8842 5.28308 89.9791 4.83056 89.9866 4.78772L90.0041 4.71542H91.398H92.7919L92.9343 3.99783C93.0117 3.60422 93.0766 3.26684 93.0766 3.2481C93.0766 3.224 92.622 3.21597 90.8909 3.21597C89.1622 3.21597 88.7026 3.224 88.6926 3.2481Z" fill="white"/>
<path d="M101.27 3.25342C101.27 3.2668 100.893 5.14648 100.021 9.49222C99.7736 10.7293 99.5713 11.7548 99.5713 11.7735C99.5713 11.803 99.9535 11.811 101.757 11.8164C103.683 11.8244 103.945 11.8191 103.955 11.7842C103.97 11.7227 104.243 10.3517 104.243 10.3303C104.243 10.3196 103.618 10.3116 102.856 10.3116C101.762 10.3116 101.47 10.3035 101.47 10.2768C101.472 10.2607 101.56 9.8055 101.665 9.2673L101.857 8.28998L102.971 8.28194L104.083 8.27659L104.225 7.55899C104.303 7.16539 104.368 6.82801 104.368 6.80927C104.368 6.78517 104.13 6.77713 103.268 6.77713C102.664 6.77713 102.169 6.77178 102.169 6.76375C102.169 6.75571 102.259 6.3032 102.369 5.75965C102.479 5.2161 102.569 4.76358 102.569 4.75555C102.569 4.74752 103.198 4.74216 103.965 4.74216C105.274 4.74216 105.364 4.73948 105.377 4.69396C105.384 4.66987 105.447 4.35926 105.517 4.00582C105.587 3.65238 105.651 3.33642 105.659 3.30161L105.671 3.24271H103.471C102.259 3.24271 101.27 3.24806 101.27 3.25342Z" fill="white"/>
<path d="M107.241 3.25077C107.241 3.25881 106.858 5.17061 106.391 7.5028C105.924 9.83231 105.542 11.7629 105.542 11.7896C105.542 11.8352 105.582 11.8378 106.334 11.8325L107.126 11.8244L107.358 10.6731C107.485 10.0385 107.635 9.28876 107.693 9.00493L107.798 8.48548L108.125 8.49619C108.402 8.50422 108.467 8.51493 108.557 8.56581C108.687 8.6381 108.777 8.76395 108.814 8.91925C108.832 8.98619 108.932 9.6663 109.037 10.4321L109.229 11.8244L110.083 11.8325C110.606 11.8352 110.938 11.8298 110.938 11.8137C110.938 11.7361 110.536 8.94335 110.511 8.85231C110.466 8.68362 110.393 8.53367 110.301 8.41586L110.213 8.30876L110.446 8.16952C110.87 7.90712 111.285 7.39837 111.445 6.93783C111.55 6.63794 111.845 5.11438 111.857 4.80914C111.884 4.08351 111.557 3.56138 110.928 3.32575L110.75 3.25881L108.997 3.2481C108.03 3.24274 107.241 3.24542 107.241 3.25077ZM109.978 4.81985C110.113 4.90017 110.193 5.0528 110.191 5.21881C110.191 5.39553 109.924 6.70488 109.864 6.83072C109.796 6.97531 109.671 7.10384 109.524 7.18149C109.406 7.24307 109.381 7.24575 108.742 7.25378C108.38 7.25914 108.075 7.25378 108.063 7.24039C108.053 7.22968 108.142 6.73165 108.262 6.13455C108.385 5.53744 108.497 4.9805 108.515 4.89482L108.545 4.73684L109.209 4.74755C109.856 4.75558 109.879 4.75826 109.978 4.81985Z" fill="white"/>
<path d="M113.905 3.67652C113.965 7.18417 114.058 11.8164 114.065 11.8244C114.07 11.8325 114.53 11.8378 115.085 11.8378L116.094 11.8405L117.875 7.56707C118.854 5.21614 119.656 3.28559 119.656 3.28024C119.656 3.27488 119.284 3.2722 118.829 3.27488L118.002 3.28291L116.768 6.42909C116.089 8.15882 115.524 9.59937 115.509 9.62882C115.492 9.66631 115.487 9.41997 115.497 8.83893C115.504 8.3757 115.517 6.93248 115.524 5.63117L115.542 3.26953H114.72H113.898L113.905 3.67652Z" fill="white"/>
<path d="M122.596 3.51052C122.021 4.86806 119.141 11.8298 119.148 11.8432C119.153 11.8566 119.523 11.8646 119.968 11.8646H120.775L121.157 10.8739L121.542 9.8832H122.401H123.26L123.243 10.8739L123.225 11.8646H124.062H124.899L124.886 11.5487C124.881 11.3773 124.854 9.58331 124.826 7.56708C124.799 5.54817 124.769 3.76221 124.762 3.59888L124.747 3.29631L123.72 3.29096L122.693 3.28292L122.596 3.51052ZM123.285 6.9191L123.27 8.38375H122.698C122.383 8.38375 122.131 8.37571 122.136 8.36233C122.141 8.35162 122.403 7.69025 122.716 6.88965C123.03 6.09172 123.29 5.44107 123.295 5.44642C123.3 5.45178 123.295 6.11582 123.285 6.9191Z" fill="white"/>
<path d="M127.787 3.3552C127.779 3.39001 127.717 3.70061 127.649 4.04602C127.582 4.39143 127.519 4.70203 127.512 4.73417L127.5 4.79575L128.344 4.80111L129.188 4.80914L128.719 7.16542C128.201 9.76537 127.804 11.7468 127.784 11.8164C127.772 11.8593 127.827 11.8646 128.574 11.87C129.268 11.878 129.376 11.8726 129.383 11.8378C129.398 11.7843 129.798 9.78411 130.345 7.04493L130.789 4.80914L131.626 4.80111L132.463 4.79575L132.603 4.09154C132.68 3.70597 132.745 3.36859 132.745 3.34181C132.745 3.29897 132.608 3.2963 130.272 3.2963H127.799L127.787 3.3552Z" fill="white"/>
<path d="M133.572 6.3407C133.238 8.01687 132.853 9.93939 132.718 10.6141C132.581 11.2862 132.471 11.8512 132.471 11.8646C132.471 11.8806 132.758 11.8914 133.265 11.8914H134.059L134.142 11.4951C134.349 10.4829 135.768 3.36321 135.768 3.33108C135.768 3.30163 135.621 3.29627 134.974 3.29627H134.182L133.572 6.3407Z" fill="white"/>
<path d="M144.051 3.36858C144.044 3.39536 143.712 5.05012 143.314 7.04493C142.565 10.7962 142.37 11.7655 142.348 11.8432C142.335 11.886 142.39 11.8914 143.137 11.8967C143.831 11.9048 143.939 11.8994 143.949 11.8646C143.971 11.7762 144.346 9.89924 144.588 8.66487C144.728 7.94192 144.851 7.34482 144.861 7.33411C144.868 7.3234 145.143 8.29269 145.473 9.48957C145.8 10.6838 146.085 11.72 146.105 11.7896L146.14 11.9182H146.722H147.304L147.316 11.8432C147.339 11.7307 148.111 7.87498 148.58 5.52405C148.815 4.35662 149.007 3.38197 149.007 3.36055C149.007 3.32842 148.89 3.32307 148.213 3.32307H147.421L147.354 3.66312C147.029 5.29913 146.497 7.90176 146.484 7.90176C146.477 7.90176 146.19 6.87088 145.847 5.61241L145.223 3.32307H144.643C144.114 3.32307 144.064 3.32574 144.051 3.36858Z" fill="white"/>
<path d="M76.1025 7.47871C76.0376 7.78128 75.8652 8.6756 75.8652 8.71041C75.8652 8.75593 75.9502 8.75861 77.494 8.75325L79.1252 8.74522L79.2526 8.10259C79.325 7.74915 79.3775 7.45194 79.37 7.43855C79.365 7.42784 78.6306 7.41981 77.7388 7.41981H76.115L76.1025 7.47871Z" fill="white"/>
<path d="M155.592 15.3374C155.585 15.3642 154.995 17.4179 154.278 19.9027C153.564 22.3875 152.979 24.4252 152.979 24.4305C152.979 24.4359 156.269 24.4493 160.291 24.46C164.315 24.4707 167.608 24.4841 167.613 24.4868C167.615 24.4921 167.52 24.7545 167.398 25.0678C166.084 28.4416 164.21 31.5851 161.785 34.4796C161.223 35.1516 160.004 36.4556 159.399 37.0313C158.372 38.0086 157.278 38.919 156.102 39.7705C153.831 41.4172 151.363 42.8096 148.695 43.9475C146.514 44.8767 144.388 45.5702 141.958 46.1405C141.878 46.1592 141.813 46.1807 141.813 46.1914C141.813 46.1994 141.945 46.3199 142.108 46.4591C144.239 48.296 145.957 51.6108 146.974 55.8495C147.011 56.0155 147.054 56.152 147.066 56.152C147.096 56.152 147.948 55.7156 148.92 55.1988C153.291 52.8827 157.386 49.9641 161.028 46.5609C161.23 46.3735 161.405 46.2182 161.42 46.2182C161.462 46.2182 162.112 47.4284 162.649 48.5102C163.736 50.6951 164.637 53.038 165.202 55.1212L165.309 55.5228L166.846 55.5389C168.962 55.5603 176.361 55.5656 176.361 55.5469C176.361 55.4987 175.469 53.0353 175.044 51.908C173.393 47.5302 171.769 43.6664 169.768 39.3581L169.099 37.9203L169.486 37.4035C172.044 33.9789 174.167 30.174 176.178 25.4132C176.693 24.1976 177.345 22.5348 177.76 21.3834C178.019 20.6632 178.147 20.3552 178.447 19.7233C179.049 18.4461 179.668 17.5598 180.383 16.944C180.647 16.7164 181.08 16.4085 181.357 16.2478C181.974 15.8944 182.878 15.5864 183.737 15.4365C183.885 15.4124 184.002 15.3883 184 15.3856C183.995 15.3803 178.799 15.3642 172.451 15.3481C166.104 15.3321 159.716 15.3133 158.258 15.3026C155.695 15.2865 155.607 15.2892 155.592 15.3374Z" fill="white"/>
<path d="M108.579 15.4713C108.46 15.8703 107.615 18.8076 107.615 18.8291C107.615 18.8424 108.097 18.8531 108.827 18.8531C109.494 18.8531 110.038 18.8478 110.038 18.8398C110.038 18.8317 110.263 18.0499 110.538 17.102C110.813 16.1515 111.038 15.3696 111.038 15.3616C111.038 15.3535 110.493 15.3455 109.828 15.3455H108.619L108.579 15.4713Z" fill="white"/>
<path d="M111.077 17.0645C110.802 18.0124 110.575 18.8023 110.568 18.8183C110.56 18.8451 110.795 18.8531 111.692 18.8531H112.826L112.958 18.4033C113.41 16.8717 113.555 16.521 113.892 16.13C114.09 15.9024 114.492 15.6293 114.882 15.458C114.957 15.4258 115.012 15.3937 115.007 15.3883C115.002 15.383 114.227 15.3723 113.285 15.3616L111.574 15.3455L111.077 17.0645Z" fill="white"/>
<path d="M144.374 15.8194C144.336 15.9506 144.279 16.1541 144.244 16.2746L144.182 16.4968L140.482 16.5022L136.782 16.5102L135.778 19.9911C134.731 23.6139 134.534 24.2753 134.304 24.9286C133.512 27.1724 132.446 29.1672 131.222 30.7015C130.707 31.3441 129.88 32.1795 129.441 32.4982L129.286 32.6106L127.977 37.1733C127.257 39.6795 126.663 41.7493 126.655 41.768C126.65 41.7868 126.848 41.6689 127.098 41.5056C130.238 39.4572 132.236 37.848 134.022 35.9362C134.891 35.0071 135.341 34.4528 136.01 33.4969C137.357 31.5744 138.376 29.4645 139.37 26.5378C139.663 25.6757 140 24.5698 140.617 22.4411C141.366 19.8599 141.416 19.7073 141.753 19.0165C142.223 18.0525 142.845 17.3135 143.425 17.0297C143.515 16.9868 143.702 16.9226 143.839 16.8878C144.064 16.8289 144.089 16.8289 144.079 16.8664C144.074 16.8931 142.453 22.5054 140.477 29.344C138.504 36.1825 136.892 41.7814 136.897 41.7894C136.945 41.8376 138.521 41.4494 139.565 41.1307C142.375 40.2739 144.449 39.3796 147.759 37.5936C148.72 37.0742 150.369 36.1477 150.412 36.1022C150.422 36.0915 150.689 35.1892 151.006 34.1021C151.323 33.0123 151.633 31.9519 151.696 31.7458C151.95 30.9077 152.425 30.0482 153.144 29.1217C153.504 28.6585 154.316 27.7776 154.703 27.4268C155.26 26.9234 155.35 26.8672 153.322 28.3024C151.868 29.3306 151.283 29.7188 150.582 30.1312C150.067 30.4337 149.223 30.9077 148.783 31.1433C147.784 31.6788 145.183 33.023 145.171 33.0096C145.168 33.0069 145.963 30.2517 146.937 26.8859C147.911 23.5202 148.81 20.4115 148.935 19.9777C149.183 19.1182 149.347 18.6818 149.585 18.2426C150.194 17.1154 151.031 16.3442 152.06 15.9667C152.408 15.8355 152.502 15.8141 153.192 15.7096L153.742 15.624L152.105 15.6052C151.206 15.5945 149.113 15.5865 147.454 15.5865H144.439L144.374 15.8194Z" fill="white"/>
<path d="M121.052 15.7873C121.04 15.8168 120.855 16.4487 120.643 17.193C120.428 17.9374 120.235 18.6015 120.215 18.6711L120.175 18.7996L116.738 18.7809L113.298 18.7648L113.203 19.0888L113.111 19.4154H110.053C108.37 19.4154 106.978 19.4101 106.961 19.4021C106.933 19.3887 107.001 19.1156 107.278 18.1275C107.498 17.343 107.623 16.8637 107.605 16.8583C107.59 16.853 106.334 16.8423 104.813 16.8342L102.047 16.8182L102 16.9842C101.975 17.0779 101.82 17.6563 101.655 18.2694L101.358 19.3887H99.829C98.9871 19.3887 98.2977 19.3806 98.2977 19.3726C98.2977 19.3646 98.4576 18.7969 98.6499 18.1141C98.8448 17.4287 98.9971 16.8637 98.9896 16.8557C98.9747 16.8396 93.1992 16.7834 93.1343 16.7968C93.1068 16.8021 92.9844 17.1877 92.7296 18.0766L92.3624 19.3485L90.8411 19.3619L89.3198 19.3753L88.438 22.4277C87.9533 24.1066 87.5562 25.4963 87.5562 25.5123C87.5562 25.5391 87.8734 25.5471 89.055 25.5471C90.264 25.5471 90.5538 25.5525 90.5538 25.582C90.5538 25.6007 90.3015 26.4897 89.9917 27.5553C89.6845 28.621 89.4347 29.4966 89.4397 29.502C89.4422 29.5073 90.7761 29.51 92.4023 29.51C94.763 29.51 95.3625 29.5046 95.3775 29.4779C95.385 29.4591 95.6448 28.5728 95.9495 27.5071L96.5091 25.5739H98.0504H99.5942L99.5592 25.6864C99.5417 25.7506 99.4942 25.9033 99.4568 26.0291C99.2844 26.6155 98.8747 27.8606 98.7074 28.3158C97.6282 31.229 96.0295 33.114 93.8487 34.0351C93.0993 34.3511 92.3898 34.5492 91.1283 34.7956C90.3065 34.9562 89.9193 35.0098 89.2523 35.0526C89.03 35.066 88.8426 35.0821 88.8376 35.0901C88.8326 35.0955 88.8901 35.2374 88.9675 35.4034C89.2248 35.9496 89.8718 37.5455 90.0617 38.0944C90.2765 38.7182 90.6737 40.0463 90.9909 41.2111C91.0684 41.4976 91.1383 41.7386 91.1433 41.7439C91.1733 41.7787 92.225 41.436 92.7246 41.2272C94.5581 40.4587 96.4092 39.31 98.3476 37.7356C99.4892 36.8064 100.196 36.0942 101.018 35.0392C102.449 33.1997 103.723 30.7631 104.593 28.1899C104.71 27.8365 105.012 26.8324 105.32 25.7667L105.37 25.6007H106.574H107.778L108.137 24.3342C108.612 22.658 108.722 22.3608 109.102 21.745C109.734 20.7194 110.63 20.0045 111.662 19.6993C111.862 19.6404 113.086 19.4262 113.099 19.4476C113.101 19.4529 112.491 21.5709 111.745 24.1548C111 26.7387 110.388 28.87 110.388 28.8861C110.388 28.9129 110.973 28.9209 113.231 28.9209H116.074L116.683 26.8244C117.018 25.673 117.335 24.5805 117.388 24.3985L117.488 24.0664L121.162 24.0825C123.183 24.0932 124.842 24.1066 124.847 24.1146C124.872 24.1414 124.377 25.7721 124.115 26.5218C123.078 29.502 121.912 31.2344 120.051 32.5517C118.234 33.8397 115.689 34.7688 112.949 35.1437C111.755 35.307 110.983 35.3579 109.576 35.3579C108.884 35.3605 108.472 35.3686 108.54 35.382C108.954 35.465 109.414 35.6631 109.776 35.9148C110.268 36.2522 110.903 36.9028 111.135 37.3045C111.507 37.9471 112.159 39.5349 112.721 41.1709C112.944 41.8109 112.939 41.8002 112.971 41.8002C112.989 41.8002 113.388 41.6877 113.863 41.5485C117.885 40.3757 120.69 39.1279 122.846 37.5535C123.388 37.1572 123.64 36.9564 124.145 36.5039C125.976 34.8679 127.44 32.7606 128.751 29.8715C129.591 28.0186 130.34 25.9809 131.319 22.8883C131.457 22.4518 131.599 22.0582 131.684 21.8788C132.271 20.6257 133.22 19.6832 134.367 19.2146C134.657 19.0968 134.934 19.0326 135.541 18.9335C135.823 18.8906 136.058 18.8478 136.063 18.8398C136.07 18.8317 134.527 18.8264 132.631 18.8264C130.737 18.8264 128.504 18.8183 127.67 18.8076L126.151 18.7916L126.166 18.7219C126.176 18.6845 126.223 18.5559 126.276 18.4354C126.623 17.6268 127.497 16.7512 128.401 16.2987C128.906 16.0497 129.103 15.9908 129.865 15.8676C130.175 15.8168 130.435 15.7712 130.442 15.7632C130.45 15.7552 128.344 15.7445 125.764 15.7418C121.095 15.7338 121.072 15.7338 121.052 15.7873Z" fill="white"/>
<path d="M35.7517 16.62C34.7725 20.042 34.2754 21.7636 34.1155 22.2697L34.0281 22.5402L35.8441 22.5562C36.8409 22.5669 39.5837 22.575 41.9368 22.575C45.4241 22.575 46.2185 22.5803 46.2285 22.6098C46.2435 22.6553 44.6522 28.0908 44.5023 28.5032C43.8828 30.1954 42.9585 31.5744 41.7295 32.6347C40.2906 33.8744 38.4221 34.7179 36.3113 35.0793C36.1439 35.1088 35.2621 35.2052 34.3478 35.2935C33.4335 35.3819 32.6766 35.4596 32.6617 35.4676C32.6492 35.4729 32.6716 35.4783 32.7116 35.4783C32.894 35.4837 33.4785 35.5934 33.7308 35.6711C34.2529 35.8264 34.6601 36.0781 34.9673 36.4315C35.2521 36.7609 35.392 37.0634 35.6643 37.9444C35.9216 38.7798 36.4462 40.7773 36.7484 42.0786L36.8034 42.3142L36.8958 42.2981C37.2455 42.2392 38.1973 41.8858 38.9417 41.5404C40.8327 40.6675 43.0385 39.16 44.862 37.4972C45.2592 37.1357 46.201 36.129 46.5332 35.7139C48.1669 33.6602 49.5733 30.9451 50.4551 28.131C50.5126 27.9543 51.0472 26.1281 51.6467 24.0744C52.2437 22.0207 52.7758 20.2133 52.8233 20.058C53.0056 19.4823 53.3853 18.746 53.7325 18.2908C54.3596 17.4688 55.1514 16.9092 56.0407 16.6601C56.1506 16.628 56.5054 16.5611 56.8276 16.5102C57.1524 16.4566 57.4296 16.4111 57.4421 16.4058C57.4571 16.3977 55.5561 16.3924 53.2205 16.3924C50.8848 16.3897 46.0161 16.3817 42.399 16.371L35.8267 16.3549L35.7517 16.62Z" fill="white"/>
<path d="M72.603 18.6014L72.0259 20.607L67.9691 20.6123L63.9123 20.6177L63.8673 20.773C63.5401 21.9029 63.3952 22.3099 63.0655 23.0436C62.1137 25.1562 60.7498 26.7868 58.9337 27.973C58.649 28.1605 58.007 28.5059 57.6497 28.6638C57.0852 28.9155 56.2184 29.1913 55.4665 29.36C54.7071 29.5314 53.4106 29.7188 51.9892 29.8607C51.8093 29.8795 51.647 29.9036 51.632 29.9116C51.612 29.9277 50.1606 34.9669 50.1606 35.0258C50.1606 35.0446 50.2381 35.0365 50.8601 34.9696C52.4688 34.7955 54.2274 34.4769 55.7387 34.086C55.9711 34.0244 56.1634 33.9816 56.1709 33.9896C56.1784 33.9949 55.6788 35.7541 55.0618 37.8935C54.4448 40.0356 53.9452 41.7948 53.9502 41.8055C53.9552 41.8189 55.0818 41.8269 56.4532 41.8269H58.9462L60.4276 36.7047C61.2419 33.8905 61.9314 31.5128 61.9563 31.4218C61.9988 31.2665 62.0088 31.2531 62.1837 31.1299C62.7707 30.7122 63.5401 30.0589 64.1771 29.435C65.1663 28.4684 65.9882 27.4402 66.7326 26.2326C67.1672 25.5284 67.4345 25.0518 68.2864 23.4452C68.6436 22.7678 68.7535 22.5964 69.0283 22.2912C69.5504 21.7048 70.1024 21.346 70.9443 21.0461C71.294 20.9229 71.9435 20.7462 71.966 20.7703C71.971 20.7756 71.8785 21.1237 71.7561 21.5441C71.6362 21.9645 71.5413 22.3126 71.5463 22.3179C71.5513 22.3233 73.6147 22.3394 76.1327 22.3501L80.7091 22.3742L80.5492 22.7865C79.3876 25.7613 77.4341 28.5648 75.0161 30.7283C74.3491 31.3254 73.2474 32.1501 72.4056 32.6883C70.1474 34.1261 67.5344 35.24 65.0114 35.8425C64.7916 35.8934 64.5918 35.9469 64.5693 35.9576C64.5343 35.9737 64.5643 36.0085 64.7167 36.137C64.984 36.3593 65.3936 36.8037 65.6559 37.1545C65.9032 37.4839 66.2729 38.0702 66.4703 38.4451C66.9324 39.3207 67.3921 40.5577 67.6743 41.6796C67.8067 42.2071 67.8092 42.2152 67.8467 42.2071C67.9042 42.1937 68.9808 41.6341 69.4205 41.3905C72.0459 39.9365 74.2591 38.3407 76.4624 36.3164C76.6598 36.1343 76.8296 35.9951 76.8421 36.0085C76.9046 36.0754 77.5366 37.3018 77.8138 37.8935C78.4259 39.1975 78.853 40.3355 79.2003 41.5886L79.2627 41.8189L80.9689 41.8349C81.9056 41.8457 83.4669 41.8537 84.4386 41.8537H86.2022L86.0524 41.4306C84.9257 38.2443 83.4594 34.6777 81.9306 31.3977L81.6433 30.7818L81.7657 30.6212C81.9681 30.3561 82.5626 29.5207 82.8024 29.1592C84.3437 26.8565 85.7276 24.0423 86.9491 20.7408C87.7011 18.7005 88.2581 17.8544 89.2448 17.2492C89.6295 17.0136 90.1166 16.8289 90.6412 16.7244L90.941 16.6655L88.8551 16.6468C87.7085 16.6388 83.7117 16.6227 79.9746 16.6147L73.18 16.5986L72.603 18.6014Z" fill="white"/>
<path d="M60.1024 47.897C59.438 47.9452 58.8609 48.1514 58.4263 48.4968C58.0541 48.794 57.7368 49.2492 57.547 49.766C57.477 49.9534 57.3596 50.505 57.0074 52.2803C56.7576 53.5334 56.5428 54.666 56.5278 54.7972C56.4503 55.4773 56.6477 56.0718 57.0623 56.4091C57.2597 56.5698 57.477 56.6769 57.7793 56.7599C58.1065 56.8536 58.7585 56.875 59.1782 56.8108C60.1374 56.6608 60.8569 56.1307 61.259 55.2819C61.359 55.073 61.4414 54.8481 61.4938 54.6419C61.5388 54.4572 62.3182 50.5613 62.3782 50.2105C62.4881 49.5652 62.4031 48.9922 62.1433 48.6227C61.7686 48.0872 61.0367 47.8274 60.1024 47.897ZM60.3872 49.4367C60.5246 49.4822 60.7145 49.6803 60.7494 49.8196C60.7644 49.8785 60.7769 49.999 60.7769 50.0846C60.7769 50.2533 59.9551 54.4384 59.8826 54.6392C59.7877 54.9043 59.5804 55.1399 59.3306 55.2631C59.1457 55.3542 58.781 55.3756 58.5687 55.3113C58.3089 55.2283 58.154 55.0007 58.154 54.6928C58.154 54.6232 58.3513 53.5762 58.5911 52.366C59.0683 49.9695 59.0708 49.9642 59.2906 49.7178C59.5454 49.4313 60.0025 49.3135 60.3872 49.4367Z" fill="white"/>
<path d="M81.4609 47.9506C81.2585 47.9667 80.9313 48.0416 80.699 48.1193C79.8846 48.4004 79.3076 49.0109 79.0153 49.8945C78.9478 50.098 78.1585 53.9752 78.0486 54.6392C78.0036 54.915 78.0036 55.3381 78.0511 55.5764C78.2284 56.4734 79.0228 56.9527 80.2243 56.8938C81.3185 56.8375 82.0854 56.4252 82.59 55.6219C82.8223 55.2524 82.9547 54.8802 83.0921 54.2028L83.177 53.7958H82.3751H81.5733L81.4908 54.2028C81.3959 54.6847 81.3085 54.9016 81.1286 55.0891C80.9263 55.3006 80.674 55.4023 80.3617 55.4023C79.9446 55.4023 79.6873 55.1881 79.6498 54.8079C79.6373 54.6874 79.7047 54.3152 80.072 52.4704C80.3143 51.2628 80.5291 50.2185 80.5516 50.1462C80.604 49.9749 80.7814 49.7312 80.9313 49.6241C81.2735 49.3777 81.8281 49.3644 82.0754 49.5973C82.2927 49.8008 82.3202 50.0177 82.2103 50.5934C82.1653 50.8237 82.1328 51.0164 82.1403 51.0245C82.1453 51.0298 82.505 51.0379 82.9347 51.0379L83.7216 51.0405L83.8015 50.6443C83.9514 49.8999 83.9589 49.5063 83.8365 49.0805C83.6991 48.612 83.3194 48.2398 82.7973 48.0657C82.4701 47.9586 81.9305 47.9104 81.4609 47.9506Z" fill="white"/>
<path d="M98.9347 47.9773C98.1203 48.0336 97.5058 48.2933 97.0137 48.794C96.7064 49.1019 96.5091 49.4206 96.3592 49.849C96.2892 50.0525 96.0594 51.1931 96.0369 51.4529C96.017 51.6804 96.0694 51.9723 96.1668 52.1892C96.2543 52.3847 96.4966 52.6417 96.6814 52.7327C96.7589 52.7729 97.176 52.9148 97.6057 53.0487C98.4126 53.3004 98.5899 53.3754 98.6849 53.5146C98.8572 53.7636 98.8772 53.9216 98.7873 54.4089C98.6873 54.9471 98.5699 55.2122 98.3401 55.413C98.0778 55.6433 97.6906 55.7209 97.3484 55.6112C97.0911 55.5308 96.9487 55.3086 96.9487 54.9873C96.9487 54.8293 97.0187 54.4196 97.1361 53.8814L97.1486 53.8225H96.3517C95.6123 53.8225 95.5523 53.8252 95.5398 53.868C95.5323 53.8948 95.4849 54.1144 95.4349 54.358C95.2301 55.3514 95.3125 55.9057 95.7347 56.3529C96.1319 56.7759 96.7239 56.958 97.5857 56.9205C98.7948 56.867 99.6566 56.3261 100.119 55.33C100.244 55.0596 100.294 54.8829 100.436 54.192C100.611 53.3539 100.598 53.0219 100.384 52.631C100.304 52.4837 100.061 52.2454 99.9064 52.1651C99.8389 52.1276 99.4243 51.9884 98.9846 51.8545C98.1003 51.5867 97.9879 51.5332 97.8705 51.3377C97.7281 51.0941 97.7181 50.9334 97.813 50.4461C97.9779 49.616 98.3226 49.2465 98.9372 49.2438C99.3818 49.2438 99.6066 49.4447 99.6391 49.8784C99.6491 50.023 99.6341 50.1542 99.5617 50.5291C99.5117 50.7861 99.4642 51.0191 99.4567 51.0432C99.4443 51.0887 99.4917 51.0914 100.244 51.0914H101.043L101.068 50.9896C101.08 50.9361 101.133 50.6737 101.185 50.4086C101.268 49.9721 101.275 49.8998 101.263 49.6321C101.24 49.1287 101.105 48.7967 100.808 48.4995C100.421 48.1085 99.744 47.9211 98.9347 47.9773Z" fill="white"/>
<path d="M132.336 48.0684C131.437 48.1782 130.695 48.6494 130.267 49.3777C130.068 49.7178 129.985 49.9668 129.843 50.663C129.65 51.5948 129.653 51.8947 129.853 52.3017C129.945 52.4891 130.143 52.6926 130.322 52.7917C130.395 52.8318 130.82 52.9764 131.267 53.1157C131.711 53.2549 132.111 53.3888 132.148 53.4102C132.248 53.4638 132.378 53.611 132.428 53.7235C132.523 53.9323 132.526 54.0555 132.443 54.4812C132.358 54.9311 132.261 55.1881 132.099 55.3809C131.724 55.8308 130.889 55.8415 130.677 55.397C130.575 55.1854 130.58 55.0061 130.695 54.433C130.752 54.1573 130.797 53.9189 130.797 53.9029C130.797 53.8868 130.522 53.8761 130.003 53.8761H129.206L129.113 54.3367C128.981 55.0007 128.966 55.1185 128.983 55.3889C129.028 56.1655 129.441 56.6742 130.198 56.8857C130.662 57.0169 131.192 57.0357 131.726 56.9393C132.751 56.7572 133.49 56.1628 133.845 55.239C133.932 55.0168 133.99 54.7892 134.109 54.1974C134.259 53.4664 134.252 53.1505 134.079 52.7836C133.982 52.5694 133.77 52.3365 133.58 52.2347C133.512 52.1999 133.088 52.0553 132.633 51.9188C131.726 51.643 131.639 51.6001 131.514 51.3833C131.474 51.311 131.434 51.1905 131.419 51.0887C131.397 50.9361 131.402 50.8772 131.469 50.5371C131.509 50.331 131.576 50.0793 131.619 49.9829C131.716 49.7499 131.909 49.5357 132.119 49.4259C132.263 49.3483 132.308 49.3376 132.538 49.3295C132.741 49.3215 132.82 49.3295 132.92 49.367C133.08 49.4286 133.23 49.5946 133.273 49.758C133.315 49.9266 133.285 50.2988 133.198 50.7246C133.155 50.9281 133.12 51.1048 133.12 51.1182C133.12 51.1342 133.42 51.145 133.915 51.145H134.711L134.806 50.6683C135.019 49.6321 134.936 49.0698 134.509 48.6146C134.229 48.3147 133.912 48.1648 133.395 48.0791C133.145 48.0363 132.623 48.0309 132.336 48.0684Z" fill="white"/>
<path d="M64.1669 49.5438C64.007 50.3444 63.6223 52.2615 63.3125 53.8038C63.0028 55.3488 62.7505 56.6233 62.7505 56.6367C62.7505 56.6501 63.0902 56.6608 63.5499 56.6608C63.9895 56.6608 64.3492 56.6528 64.3492 56.6394C64.3492 56.6287 64.4791 55.978 64.6365 55.1935C64.7939 54.4063 64.9238 53.761 64.9238 53.753C64.9238 53.7476 65.4234 53.7422 66.0329 53.7422C67.0696 53.7422 67.1445 53.7396 67.157 53.694C67.177 53.6164 67.4243 52.366 67.4293 52.3097C67.4343 52.2562 67.4143 52.2562 66.3327 52.2428L65.2335 52.2294L65.4958 50.912L65.7581 49.592L67.157 49.5866L68.5534 49.5786L68.6983 48.8556C68.7782 48.4567 68.8457 48.1246 68.8457 48.1113C68.8457 48.1005 67.859 48.0925 66.6524 48.0925H64.4591L64.1669 49.5438Z" fill="white"/>
<path d="M70.257 48.1514C70.2496 48.1862 69.8674 50.0926 69.4077 52.39C68.9481 54.6874 68.5659 56.5938 68.5584 56.626L68.5459 56.6876H69.3428C69.9573 56.6876 70.1421 56.6795 70.1496 56.6528C70.1571 56.6367 70.2895 55.978 70.4469 55.1961L70.7317 53.769L71.8433 53.7636L72.9549 53.7556L73.0848 53.113C73.1548 52.7595 73.2222 52.4248 73.2297 52.3686L73.2472 52.2695H72.1456C71.2812 52.2695 71.0439 52.2615 71.0439 52.2347C71.0464 52.2187 71.1613 51.6242 71.3037 50.9173L71.561 49.6321L72.9599 49.6241L74.3563 49.6187L74.5037 48.8824C74.5836 48.478 74.6436 48.1407 74.6386 48.1353C74.6336 48.13 73.6494 48.1192 72.4503 48.1085L70.272 48.0898L70.257 48.1514Z" fill="white"/>
<path d="M75.4554 51.2172C75.1131 52.9229 74.7309 54.84 74.601 55.48C74.4711 56.1199 74.3662 56.6528 74.3662 56.6661C74.3662 56.6769 74.7234 56.6876 75.1606 56.6876H75.9575L76.0499 56.2377C76.2347 55.3381 77.6636 48.1728 77.6636 48.146C77.6636 48.13 77.3763 48.1192 76.8692 48.1192H76.0749L75.4554 51.2172Z" fill="white"/>
<path d="M85.9445 48.1782C85.9346 48.2103 85.5224 50.2667 84.6056 54.8534C84.4158 55.8093 84.2534 56.6206 84.2459 56.6528L84.2334 56.7144H86.4292H88.6249L88.6649 56.5189C88.8348 55.6835 88.9197 55.239 88.9097 55.2283C88.9022 55.2203 88.2727 55.2149 87.5133 55.2149C86.2068 55.2149 86.1294 55.2122 86.1419 55.1667C86.1544 55.1212 86.5316 53.2121 86.5316 53.1906C86.5316 53.1853 87.0312 53.1799 87.6407 53.1799C88.6774 53.1799 88.7523 53.1772 88.7648 53.1317C88.7723 53.1076 88.8348 52.797 88.9047 52.4436C88.9747 52.0901 89.0371 51.7742 89.0471 51.7421L89.0596 51.6805L87.9505 51.6751L86.8413 51.6671L87.0437 50.663L87.2485 49.6589L88.6449 49.6509L90.0438 49.6455L90.1862 48.9279C90.2636 48.5343 90.3286 48.1969 90.3286 48.1782C90.3286 48.1541 89.874 48.146 88.1428 48.146C86.4142 48.146 85.952 48.1541 85.9445 48.1782Z" fill="white"/>
<path d="M104.885 48.2049C104.877 48.2237 104.083 50.1382 103.119 52.457C102.154 54.7758 101.36 56.6902 101.352 56.7063C101.342 56.7331 101.515 56.7411 102.164 56.7411H102.989L103.371 55.7504L103.753 54.7597H104.607H105.462L105.449 55.7638L105.434 56.7679H106.261H107.09V56.3984C107.09 56.1976 107.063 54.2831 107.028 52.149C106.993 50.0123 106.966 48.2451 106.966 48.2183C106.966 48.1755 106.901 48.1728 105.931 48.1728C105.127 48.1728 104.895 48.1808 104.885 48.2049ZM105.492 51.7822C105.479 52.5828 105.467 53.2442 105.459 53.2495C105.454 53.2549 105.202 53.2576 104.9 53.2549L104.35 53.2468L104.49 52.8854C104.57 52.6872 104.827 52.0259 105.067 51.418C105.304 50.8102 105.502 50.3176 105.507 50.3202C105.509 50.3256 105.504 50.9843 105.492 51.7822Z" fill="white"/>
<path d="M110.225 48.2317C110.103 48.786 108.934 54.7383 108.914 54.915C108.882 55.1881 108.912 55.579 108.979 55.7959C109.154 56.3582 109.544 56.7036 110.198 56.8777C110.495 56.958 111.177 56.9767 111.559 56.9178C112.709 56.7357 113.505 56.0208 113.843 54.8748C113.898 54.6927 115.184 48.3147 115.184 48.2317C115.184 48.2076 114.982 48.1996 114.39 48.1996H113.595L112.963 51.3645C112.619 53.1076 112.311 54.6044 112.284 54.6927C112.191 55.0007 111.999 55.2309 111.719 55.3675C111.549 55.4505 111.192 55.4826 110.99 55.4291C110.72 55.3595 110.538 55.1185 110.538 54.8239C110.538 54.7463 110.815 53.3004 111.187 51.4395C111.544 49.6508 111.837 48.1862 111.837 48.1808C111.837 48.1755 111.477 48.1728 111.037 48.1728H110.238L110.225 48.2317Z" fill="white"/>
<path d="M115.999 52.4222C115.532 54.7463 115.147 56.6742 115.139 56.7063L115.129 56.7679H115.929H116.728L116.753 56.6394C116.768 56.5698 116.918 55.8227 117.088 54.9793L117.395 53.4423L117.732 53.453C118.05 53.4611 118.077 53.4664 118.192 53.5387C118.397 53.6672 118.404 53.6994 118.619 55.2551C118.722 56.0075 118.814 56.6608 118.821 56.7063L118.836 56.7947H119.683C120.518 56.7947 120.53 56.7947 120.53 56.7411C120.53 56.6554 120.135 53.8734 120.11 53.7824C120.075 53.6619 119.983 53.4745 119.898 53.3593C119.858 53.3031 119.828 53.2549 119.833 53.2495C119.838 53.2469 119.938 53.1826 120.053 53.1103C120.5 52.8292 120.84 52.4195 121.025 51.9402C121.072 51.8197 121.167 51.4181 121.28 50.8504C121.434 50.0846 121.462 49.9133 121.462 49.6857C121.464 48.9975 121.117 48.4807 120.505 48.2639C120.378 48.2183 120.228 48.213 118.607 48.2049L116.846 48.1969L115.999 52.4222ZM119.538 49.7365C119.583 49.7553 119.656 49.8142 119.698 49.8677C119.828 50.0257 119.826 50.1087 119.681 50.837C119.503 51.7367 119.493 51.7661 119.361 51.9241C119.154 52.1731 119.146 52.1758 118.339 52.1839L117.637 52.1919L117.68 51.983C117.705 51.8679 117.82 51.3083 117.935 50.738L118.145 49.699H118.801C119.296 49.699 119.478 49.7071 119.538 49.7365Z" fill="white"/>
<path d="M123.717 48.2612C123.612 48.7191 122.421 54.7838 122.403 54.9606C122.388 55.1105 122.388 55.2926 122.403 55.4479C122.478 56.2217 122.895 56.693 123.697 56.9072C123.887 56.9607 123.982 56.9661 124.452 56.9688C124.874 56.9688 125.036 56.958 125.214 56.9206C126.29 56.6849 127.017 55.9887 127.337 54.8883C127.372 54.7651 127.689 53.2174 128.044 51.4449L128.688 48.2264H127.887H127.087L126.44 51.4583C125.733 55.0087 125.756 54.9124 125.521 55.164C125.331 55.3675 125.129 55.4613 124.839 55.4773C124.457 55.4987 124.227 55.3997 124.107 55.1667C123.982 54.9231 123.962 55.0409 124.674 51.485C125.034 49.691 125.326 48.2157 125.326 48.2103C125.326 48.205 124.966 48.1996 124.529 48.1996H123.732L123.717 48.2612Z" fill="white"/>
<path d="M90.9657 52.4302C90.9607 52.4516 90.9057 52.7301 90.8408 53.046C90.7783 53.362 90.7209 53.6431 90.7134 53.6699C90.7009 53.7127 90.7858 53.7154 92.3421 53.7101L93.9833 53.702L94.1132 53.0594L94.2431 52.4168L93.8034 52.4114C93.5611 52.4061 92.8267 52.4007 92.1697 52.398C91.128 52.39 90.9757 52.3954 90.9657 52.4302Z" fill="white"/>
</svg>
